<?xml version="1.0" encoding="utf-8"?>
<!-- Generator: Adobe Illustrator 16.0.0, SVG Export Plug-In . SVG Version: 6.00 Build 0)  -->
<!DOCTYPE svg PUBLIC "-//W3C//DTD SVG 1.1//EN" "http://www.w3.org/Graphics/SVG/1.1/DTD/svg11.dtd">
<svg version="1.1" xmlns="http://www.w3.org/2000/svg" xmlns:xlink="http://www.w3.org/1999/xlink" x="0px" y="0px" width="300px"
	 height="300px" viewBox="0 0 300 300" enable-background="new 0 0 300 300" xml:space="preserve">
<g id="sun" display="none">
	<g display="inline">
		<path d="M150,2c39.532,0,76.698,15.395,104.651,43.348C282.605,73.302,298,110.468,298,150s-15.395,76.698-43.349,104.651
			C226.698,282.605,189.532,298,150,298s-76.698-15.395-104.652-43.349C17.395,226.698,2,189.532,2,150S17.395,73.302,45.348,45.348
			S110.468,2,150,2 M150,0C67.158,0,0,67.158,0,150c0,82.843,67.158,150,150,150c82.843,0,150-67.157,150-150
			C300,67.158,232.843,0,150,0L150,0z"/>
	</g>
</g>
<g id="moon">
	<path fill="#FFFFFF" d="M75,150C75,80.106,122.804,21.377,187.5,4.726C175.515,1.641,162.949,0,150,0C67.158,0,0,67.158,0,150
		c0,82.843,67.158,150,150,150c12.949,0,25.515-1.641,37.5-4.726C122.804,278.623,75,219.894,75,150z"/>
</g>
</svg>
