<?xml version="1.0" encoding="utf-8"?>
<!-- Generator: Adobe Illustrator 16.0.0, SVG Export Plug-In . SVG Version: 6.00 Build 0)  -->
<!DOCTYPE svg PUBLIC "-//W3C//DTD SVG 1.1//EN" "http://www.w3.org/Graphics/SVG/1.1/DTD/svg11.dtd">
<svg version="1.1" id="Layer_1" xmlns="http://www.w3.org/2000/svg" xmlns:xlink="http://www.w3.org/1999/xlink" x="0px" y="0px"
	 width="300px" height="300px" viewBox="0 0 300 300" enable-background="new 0 0 300 300" xml:space="preserve">
<g>
	<path d="M150,20c34.725,0,67.37,13.522,91.924,38.076S280,115.276,280,150c0,34.725-13.522,67.37-38.076,91.924
		S184.725,280,150,280c-34.724,0-67.37-13.522-91.924-38.076S20,184.725,20,150c0-34.724,13.522-67.37,38.076-91.924
		C82.63,33.522,115.276,20,150,20 M150,0C67.158,0,0,67.158,0,150c0,82.843,67.158,150,150,150c82.843,0,150-67.157,150-150
		C300,67.158,232.843,0,150,0L150,0z"/>
</g>
</svg>
